<svg xmlns="http://www.w3.org/2000/svg" xmlns:xlink="http://www.w3.org/1999/xlink"><symbol id="om" viewBox="0 0 512.001 512.001">
<g>
<path class="om-icon__aum" d="M290.993 59.043l-11.931 12.014c-4.03 4.058-4.03 10.698 0 14.756l11.93 12.013c4.03 4.058 10.625 4.058 14.655 0l11.931-12.013c4.03-4.058 4.03-10.698 0-14.757l-11.93-12.013c-4.03-4.058-10.625-4.058-14.655 0zm54.166 54.563c-36.638 30.974-65.019 23.14-81.652 12.219-8.602-5.648-14.401-2.138-10.93 7.028 23.325 61.6 93.329 27.597 120.141 11.713 6.758-4.004 7.022-11.275 3.227-16.078L364.256 113.7c-4.324-5.469-10.955-6.976-19.097-.094z"/>
<path class="om-icon__circle" d="M372.718 144.567c-26.812 15.884-96.817 49.887-120.141-11.713-3.471-9.166 2.328-12.676 10.93-7.028 16.633 10.92 45.014 18.754 81.652-12.219 8.142-6.882 14.772-5.375 19.096.095l11.689 14.788c3.796 4.801 3.532 12.073-3.226 16.077zm-162.413 7.279c-28.782-13.728-64.668.627-88.693 16.605-5.171 3.439-7.421 11.06-3.745 16.368l13.08 18.886c3.89 5.617 9.982 6.879 16.127 1.143 58.33-54.459 86.993 19.67 38.18 35.569-12.201 3.974-12.974 18.261 1.306 23.655 46.443 17.543 60.917 88.055 2.466 91.169-42.524 2.265-67.49-29.952-79.859-53.116-5.822-10.903-13.177-7.395-14.205 1.958-18.607 169.145 240.281 131.847 155.813-13.831 61.75 10.89 49.837-62.616 93.793-61.914 17.444-.352 42.605 17.105 26.557 62.07-10.192 28.555-44.083 30.09-62.591 28.517-9.834-.836-13.177 10.077-8.686 16.706 24.543 36.219 75.663 26.197 100.25-2.246 42.563-49.237 2.779-136.436-51.904-139.387-55.548-2.996-59.625 61.259-100.594 62.673-11.547.399-18.984-12.094-9.793-23.471 25.284-31.293.536-67.981-27.502-81.354zm107.274-66.033l-11.931 12.013c-4.03 4.058-10.625 4.058-14.655 0l-11.93-12.013c-4.03-4.058-4.03-10.698 0-14.756l11.931-12.014c4.03-4.058 10.625-4.058 14.655 0l11.93 12.013c4.03 4.059 4.03 10.699 0 14.757zm184.422 170.188C502.001 120.138 391.863 10 256 10S10 120.138 10 256.001s110.138 246 246 246 246.001-110.138 246.001-246z"/>
<path class="om-icon__aum" d="M400.099 333.386c42.563-49.237 2.779-136.436-51.904-139.387-55.548-2.996-59.625 61.259-100.594 62.673-11.547.399-18.984-12.094-9.793-23.471 25.282-31.294.534-67.982-27.504-81.356-28.782-13.728-64.668.627-88.693 16.605-5.171 3.439-7.421 11.06-3.745 16.368l13.08 18.886c3.89 5.617 9.982 6.879 16.127 1.143 58.33-54.459 86.993 19.67 38.18 35.569-12.201 3.974-12.974 18.261 1.306 23.655 46.443 17.543 60.917 88.055 2.466 91.169-42.524 2.265-67.49-29.952-79.859-53.116-5.822-10.903-13.177-7.395-14.205 1.958-18.607 169.145 240.281 131.847 155.813-13.831 61.75 10.89 49.837-62.616 93.793-61.914 17.444-.352 42.605 17.105 26.557 62.07-10.192 28.555-44.083 30.09-62.591 28.517-9.834-.836-13.177 10.077-8.686 16.706 24.546 36.221 75.665 26.2 100.252-2.244z"/>
</g>
<path d="M437.021 74.98C388.668 26.629 324.381 0 256 0c-52.028 0-102.12 15.532-144.861 44.919-4.551 3.129-5.704 9.354-2.575 13.905 3.129 4.552 9.355 5.705 13.906 2.575C161.862 34.315 208.036 20 256 20c130.131 0 236 105.87 236 236.001s-105.869 236-236 236-236-105.869-236-236c0-47.976 14.317-94.151 41.404-133.536 3.129-4.551 1.978-10.777-2.573-13.906-4.549-3.128-10.776-1.979-13.906 2.572C15.535 153.865 0 203.961 0 256.001c0 68.38 26.628 132.668 74.981 181.02 48.352 48.352 112.639 74.98 181.02 74.98s132.667-26.629 181.02-74.98c48.352-48.352 74.98-112.64 74.98-181.02 0-68.381-26.629-132.668-74.98-181.021z"/>
<path d="M85.021 302.99c-5.913 53.747 14.445 95.222 55.853 113.787 13.903 6.233 29.063 9.224 44.067 9.224 28.297-.001 56.029-10.639 73.671-30.218 11.822-13.12 18.426-29.555 19.097-47.529.555-14.884-2.848-30.674-10.134-47.108 27.426-2.256 39.438-22.747 48.62-38.417 9.208-15.717 15.085-24.606 28.213-24.39.123.002.242.001.361-.001 4.791-.112 11.967 2.111 16.671 8.644 6.371 8.849 6.463 22.703.267 40.066-7.944 22.261-36.197 23.283-52.325 21.915-7.844-.664-14.808 2.838-18.638 9.374-4.075 6.956-3.743 16.161.827 22.905 11.258 16.614 28.617 26.418 48.881 27.607 24.396 1.426 50.786-9.922 67.213-28.924 22.173-25.65 26.561-63.658 11.452-99.191-6.555-15.415-16.209-28.833-27.92-38.805-12.816-10.913-27.5-17.108-42.463-17.915-35.469-1.9-53.342 20.121-67.705 37.825-12.25 15.101-20.435 24.378-33.773 24.839-1.548.052-2.762-.549-3.292-1.609-.691-1.384-.084-3.472 1.623-5.584 11.19-13.851 15.12-29.923 11.363-46.479-4.635-20.429-21.255-40.128-42.341-50.186-38.115-18.181-81.606 6.045-98.536 17.305-4.972 3.307-8.48 8.633-9.625 14.614-1.079 5.637.056 11.238 3.196 15.773l13.08 18.886c3.636 5.249 8.741 8.474 14.377 9.079 4.097.439 10.343-.298 16.795-6.319 15.064-14.064 29.449-19.915 38.482-15.645 5.07 2.396 8.081 8.133 7.669 14.614-.565 8.921-7.255 16.316-17.893 19.781-9.615 3.132-15.965 11.058-16.176 20.192-.225 9.715 6.307 18.27 17.046 22.326 23.697 8.951 36.714 33.663 34.003 51.128-2.48 15.984-16.887 20.08-28.536 20.7-36.139 1.957-58.285-24.954-70.506-47.84-6.779-12.695-15.799-12.468-19.364-11.782-7.366 1.423-12.579 8.073-13.6 17.358zm19.176 10.658c20.087 33.548 48.395 51.706 80.705 51.704 1.542 0 3.097-.041 4.656-.124 26.139-1.394 43.797-15.452 47.235-37.606 4.467-28.785-16.482-61.489-46.7-72.903-3.17-1.198-4.128-2.73-4.119-3.153.005-.224.6-1.061 2.375-1.639 18.441-6.007 30.572-20.389 31.659-37.534.933-14.711-6.558-28.041-19.083-33.961-9.97-4.714-31.112-8.495-60.676 19.106-.359.336-.659.57-.893.732a4.816 4.816 0 01-.189-.259l-13.081-18.888c-.17-.346.187-1.764 1.063-2.347 10.992-7.311 49.165-30.068 78.85-15.905 15.529 7.406 28.167 22.099 31.447 36.56 2.387 10.52-.108 20.439-7.417 29.485-6.765 8.373-8.245 18.498-3.96 27.083 4.063 8.14 12.439 12.998 21.878 12.667 23.118-.799 36.663-17.495 48.613-32.227 13.851-17.073 25.823-31.818 51.096-30.455 21.202 1.144 42.027 18.641 53.056 44.575 9.482 22.302 12.314 54.579-8.178 78.285-12.507 14.468-32.491 23.108-50.91 22.038-9.842-.577-23.642-4.318-33.496-18.861-.21-.309-.265-.761-.237-1.114 37.103 3.094 63.575-9.705 72.652-35.138 10.746-30.109 4.369-48.419-2.873-58.476-7.678-10.664-20.349-17.155-33.116-16.956a42.623 42.623 0 00-.618-.004c-24.91 0-36.037 18.991-44.997 34.283-10.673 18.216-19.103 32.6-46.427 27.787a9.999 9.999 0 00-10.388 14.863c20.233 34.896 20.813 65.839 1.63 87.127-21.086 23.4-62.682 30.489-94.698 16.132-18.446-8.268-47.889-30.134-44.859-84.877z"/>
<path d="M246.907 116.232c-2.037 1.633-8.32 7.913-3.683 20.162 7.404 19.555 19.71 32.467 36.576 38.376 7.109 2.49 14.594 3.551 22.196 3.551 28.386-.003 58.339-14.796 75.817-25.151 5.519-3.269 9.158-8.303 10.249-14.174 1.08-5.815-.478-11.905-4.272-16.708L372.1 107.5c-3.894-4.927-8.939-7.831-14.59-8.398-6.334-.633-12.663 1.674-18.808 6.868-25.296 21.386-48.749 25.256-69.707 11.496-8.133-5.341-16.391-5.802-22.088-1.234zm104.708 5.011c2.211-1.869 3.594-2.254 3.826-2.258.003.002.374.164.97.918l11.688 14.786c.266.337.304.608.311.619-.033.068-.248.334-.789.654-15.431 9.142-54.232 29.38-81.207 19.933-8.339-2.922-14.912-8.497-19.908-16.931 18.302 8.714 48.426 13.292 85.109-17.721z"/><path d="M283.897 104.872c3.841 3.868 8.963 5.998 14.424 5.998 5.46 0 10.582-2.13 14.422-5.996l11.933-12.015c7.896-7.954 7.896-20.896-.002-28.85l-11.931-12.013C308.903 48.13 303.782 46 298.322 46h-.002c-5.459 0-10.582 2.129-14.423 5.996l-11.93 12.014v.001c-7.898 7.953-7.898 20.896 0 28.85zm2.261-26.769l11.93-12.013c.029-.029.09-.09.232-.09s.202.061.231.09l11.931 12.013c.157.159.157.507.001.664l-11.932 12.015c-.029.028-.089.089-.23.089-.143 0-.203-.061-.232-.091l-11.931-12.012c-.157-.16-.157-.506 0-.665zM82.057 92.048a9.965 9.965 0 006.727-2.602c4.086-3.715 4.388-10.039.673-14.126-3.716-4.087-10.04-4.387-14.126-.673l-.005.005c-4.086 3.715-4.385 10.037-.67 14.124a9.97 9.97 0 007.401 3.272z"/></symbol><symbol id="om_1" viewBox="0 0 414.782 414.782"><path d="M388.986 175.302c-15.933-26.268-37.2-43.937-70.793-41.524-22.991 1.652-41.868 9.703-54.717 29.118-8.039 12.147-14.699 25.199-22.472 37.533-5.758 9.135-11.687 18.304-18.685 26.476-7.358 8.593-17.751 11.321-28.623 8.287-8.842-2.467-17.251-6.483-26.63-10.113 2.039-1.564 3.014-2.566 4.193-3.177 11.7-6.061 19.458-15.89 25.846-27 11.202-19.484 18.428-39.642 11.996-62.637-8.461-30.253-29.483-48.132-60.699-49.799-24.931-1.332-48.519 4.85-71.058 15.244-10.224 4.715-19.464 10.895-28.228 17.978-2.97 2.4-3.682 6.646-1.723 9.924l20.715 34.671a9.38 9.38 0 0012.231 3.586l.084-.042c18.908-9.413 37.852-18.743 58.908-22.532 18.322-3.297 31.698 2.726 40.819 18.182 2.704 4.583 2.839 10.313.203 14.935-5.295 9.284-12.692 16.12-22.781 19.89-12.87 4.809-26.168 5.46-39.683 4.172-4.288-.409-8.581-.774-13.016-1.147-4.373-.368-7.937 3.466-7.242 7.799 3.425 21.37 7.519 44.528 31.62 54.941 6.332 2.736 13.824-.958 20.683-.565 13.471.772 25.676 4.664 33.576 16.801 16.739 25.719 6.553 59.781-21.827 71.309-7.739 3.143-16.251 5.161-24.573 5.945-26.636 2.508-51.984-2.166-74.762-16.882-14.92-9.639-23.277-24.771-29.716-40.482-7.68-18.74-13.536-38.227-20.259-57.363a5.438 5.438 0 00-.054-.149c-1.368-3.615-6.862-2.629-6.827 1.236l.001.096c.145 9.665.213 19.368 1.122 28.979 3.698 39.094 16.218 74.801 42.833 104.384 30.873 34.317 69.311 47.871 114.789 38.531 20.591-4.229 35.628-17.905 47.365-34.421 22.924-32.26 22.75-67.302 9.875-103.238a79.686 79.686 0 00-1.686-4.279c-2.43-5.722 1.805-12.061 8.022-12.041 10.023.032 20.897.043 22.715-.171 12.162-1.432 21.872-7.691 29.4-18.306 7.412-10.451 14.075-21.44 21.634-31.778 6.952-9.508 13.499-19.803 22.269-27.388 18.383-15.9 45.57-7.876 53.602 14.799 4.871 13.75 6.389 28.056 5.856 42.567-1.265 34.449-21.405 62.834-52.766 74.571-23.611 8.837-45.422 4.093-59.793-13.181-4.92-5.914-9.045-12.242-11.757-19.516-1.073-2.877-5.266-2.527-5.912.474l-.022.102c-2.934 13.788-1.594 27.53 1.354 41.112 11.459 52.789 50.802 68.851 93.763 55.096 24.23-7.757 38.333-26.824 48.002-49.406 7.696-17.973 11.216-36.949 12.555-56.34 2.321-33.575-1.993-66.024-19.727-95.261z"/><path d="M219.474 110.014c19.672 15.373 42.166 19.191 66.509 16.679 29.767-3.073 56.026-14.143 79.154-32.87 7.961-6.446 8.536-8.698 2.66-17.361-5.408-7.972-11.821-15.275-17.944-22.747-8.124-9.913-7.955-9.528-18.758-1.956-11.277 7.904-22.412 16.461-34.76 22.298-30.84 14.579-60.088 11.214-86.597-11.19-9.356-7.907-17.521-16.742-23.922-27.073-2.085-3.365-6.483-.316-5.924 4.715 3.202 28.82 16.896 51.776 39.582 69.505z"/><path d="M254.315 74.536a6.509 6.509 0 009.205 0l31.712-31.712a6.509 6.509 0 000-9.205L263.52 1.906a6.509 6.509 0 00-9.205 0l-31.712 31.712a6.509 6.509 0 000 9.205l31.712 31.713z"/></symbol><symbol id="pranava-om"><path d="M345.869 208.3c-3.116-23.269-11.175-41.757-24.68-56.502-20.849-22.761-48.099-29.273-74.075-17.684-19.354 8.641-30.444 25.298-37.933 38.854-1.867 3.366-3.513 6.857-5.164 10.331-2.498 5.281-4.87 10.26-7.933 14.823-8.274 12.273-13.745 14.796-19.422 14.796-1.781 0-3.726-.265-5.939-.805-5.017-1.243-9.851-3.603-14.961-6.101-.471-.217-.946-.457-1.408-.673 8.848-5.681 16.393-13.583 22.458-23.515 10.919-17.895 13.571-37.062 7.653-55.458-7.389-22.959-24.175-35.566-49.896-37.443-30.129-2.195-57.346 5.818-83.815 24.5-4.78 3.387-5.738 7.47-2.927 12.469 3.215 5.749 6.227 11.598 9.253 17.438l12.28 23.68 4.789-3.104c.862-.535 1.543-.967 2.195-1.465 12.472-9.347 25.778-16.264 39.581-20.561 11.094-3.449 21.122-2.903 30.756 1.637 6.906 3.251 10.418 8.656 10.437 16.054.018 6.479-3.291 11.535-9.821 15.009-13.655 7.281-28.265 9.205-44.814 5.903-3.062-.604-6.104-1.24-9.665-1.973l-7.368-1.531 1.846 5.833c2.083 6.591 1.739 14.985 1.408 23.092-.609 14.436-1.213 29.363 12.316 34.695 6.917 2.732 16.159.493 24.484-2.054 5.726-1.753 10.989-3.471 15.033-2.636 12.108 2.468 20.011 8.389 23.491 17.576 4.918 12.964 2.618 25.316-6.806 36.731-7.681 9.313-18.318 14.754-33.501 17.131-26.292 4.072-48.393-3.398-65.533-22.241-14.568-16.021-24.611-36.173-30.697-61.609-1.186-5.014-2.03-10.269-2.84-15.36a351.064 351.064 0 00-1.18-7.17l-.457-2.666-6.842-.708-1.048 5.956c-.394 2.139-.793 4.258-.976 6.401-2.6 30.949 3.45 61.501 17.973 90.786 12.865 25.899 32.951 44.268 59.729 54.603 10.89 4.203 22.071 6.341 33.249 6.341 9.001 0 18.096-1.394 27.037-4.144 16.522-5.032 28.931-14.099 36.9-26.938 15.78-25.4 17.275-54.343 4.558-88.456-.847-2.276-1.859-4.426-2.934-6.624 2.873.36 5.647.667 8.439.727l2.799.042c5.476 0 11.799-.378 18.218-2.203l-3.435 6.646a49.174 49.174 0 00-1.405 2.799c-.39.858-.648 1.825-.78 2.948-2.732 22.271-.336 40.286 7.542 56.691 9.602 19.996 28.601 31.921 50.818 31.921a59.502 59.502 0 0029.279-7.728c28.229-16.026 43.163-41.962 45.673-79.294.751-11.503.151-24.13-1.939-39.767zm-122.876 24.86c4.563-1.646 9.127-4.102 13.427-7.812 10.021-8.641 16.645-19.696 23.046-30.396l1.478-2.474c4.558-7.59 10.214-16.15 17.504-22.08 4.432-3.597 9.788-5.569 15.107-5.569 8.84 0 16.201 5.158 20.236 14.163 8.305 18.549 9.464 37.89 3.495 57.514-7.235 23.791-30 41.049-54.133 41.049a52.56 52.56 0 01-11.188-1.213c-13.379-2.967-23.479-13.175-25.736-26.062-.36-2.065-.763-4.125-1.201-6.419l-2.035-10.701z"/><path d="M184.148 98.82c12.166 12.151 26.95 19.012 43.973 20.414 2.979.247 5.938.363 8.857.363 20.254 0 39.907-5.54 60.132-16.946 8.46-4.792 13.042-8.713 22.542-18.086 2.035-2.015 3.057-4.474 2.93-7.095-.33-6.918-8.178-13.318-17.264-20.729-5.08-4.131-10.334-8.404-13.433-12.316l-2.762-3.486-4.828 5.957c-1.135 1.408-2.155 2.702-3.236 3.924-7.08 8.007-15.577 14.363-25.965 19.438-24.464 11.965-47.09 9.788-67.677-6.605-11.442-9.094-18.706-19.098-22.191-30.615l-4.173-13.748-2.774 14.093c-1.777 8.989-1.102 18.254 2.141 29.144 4.66 15.748 14.609 27.194 23.728 36.293z"/><path d="M197.959 46.356a2039.858 2039.858 0 0016.003 14.886l9.193 8.518 9.686-9.446c7.428-7.236 14.646-14.271 21.768-21.44 1.897-1.925 2.882-7.017.45-9.416-7.86-7.692-15.847-15.243-23.209-22.179L224.152 0l-2.45 2.216c-2.763 2.465-5.452 4.837-8.077 7.157-5.584 4.93-10.874 9.584-15.954 14.553-4.78 4.669-7.656 7.491-7.626 11.289.042 3.765 2.846 6.383 7.914 11.141z"/></symbol></svg>